<svg xmlns="http://www.w3.org/2000/svg" viewBox="0 0 260 380" preserveAspectRatio="xMidYMax meet">
  <defs>
    <radialGradient id="skin3" cx="45%" cy="40%" r="55%">
      <stop offset="0%" stop-color="#5a3520"/>
      <stop offset="100%" stop-color="#3d2214"/>
    </radialGradient>
    <linearGradient id="dress3" x1="0" y1="0" x2="0.3" y2="1">
      <stop offset="0%" stop-color="#2a1a0e"/>
      <stop offset="100%" stop-color="#140c04"/>
    </linearGradient>
  </defs>
  <!-- Falda -->
  <path d="M 60 178 Q 32 242 22 380 L 238 380 Q 228 242 200 178 Q 164 162 130 162 Q 96 162 60 178 Z" fill="url(#dress3)"/>
  <path d="M 85 198 Q 75 280 64 380" stroke="#1a0e06" stroke-width="1.5" fill="none" opacity="0.45"/>
  <path d="M 130 168 Q 128 280 126 380" stroke="#1a0e06" stroke-width="1.5" fill="none" opacity="0.35"/>
  <path d="M 175 198 Q 185 280 196 380" stroke="#1a0e06" stroke-width="1.5" fill="none" opacity="0.45"/>
  <!-- Corpiño -->
  <path d="M 80 128 Q 74 162 60 178 Q 96 162 130 162 Q 164 162 200 178 Q 186 162 180 128 Q 160 108 130 106 Q 100 106 80 128 Z" fill="#1e1208"/>
  <!-- Chal -->
  <path d="M 74 118 Q 50 150 45 200 Q 57 184 70 174 Q 74 144 84 128 Z" fill="#2a1a0e" opacity="0.8"/>
  <path d="M 186 118 Q 210 150 215 200 Q 203 184 190 174 Q 186 144 176 128 Z" fill="#2a1a0e" opacity="0.8"/>
  <!-- Cuello -->
  <path d="M 108 106 Q 130 116 152 106 L 148 98 Q 130 106 112 98 Z" fill="#2a1a0e"/>
  <!-- Cabeza (ligeramente inclinada, angustia) -->
  <g transform="rotate(-4, 130, 75)">
    <ellipse cx="130" cy="75" rx="32" ry="37" fill="url(#skin3)"/>
    <!-- Tocado -->
    <path d="M 98 60 Q 102 40 130 36 Q 158 40 162 60 Q 154 49 130 47 Q 106 49 98 60 Z" fill="#1a1008"/>
    <path d="M 96 63 Q 92 56 90 68 Q 96 58 98 66 Z" fill="#1a1008"/>
    <path d="M 164 63 Q 168 56 170 68 Q 164 58 162 66 Z" fill="#1a1008"/>
    <!-- Cejas fruncidas (angustia) -->
    <path d="M 108 64 Q 115 60 122 63" stroke="#1a0e06" stroke-width="2" fill="none"/>
    <path d="M 138 63 Q 145 60 152 64" stroke="#1a0e06" stroke-width="2" fill="none"/>
    <!-- Ojos (tensos, mirando a un lado) -->
    <ellipse cx="116" cy="75" rx="5.5" ry="3.5" fill="#1a0e06"/>
    <ellipse cx="144" cy="75" rx="5.5" ry="3.5" fill="#1a0e06"/>
    <circle cx="119" cy="74" r="1.5" fill="#3d2a1a"/>
    <circle cx="147" cy="74" r="1.5" fill="#3d2a1a"/>
    <!-- Nariz -->
    <path d="M 126 85 Q 130 90 134 85" stroke="#2a1508" stroke-width="1" fill="none"/>
    <!-- Boca (tensa, angustiada) -->
    <path d="M 120 97 Q 125 95 130 96 Q 135 95 140 97" stroke="#3d2214" stroke-width="1.5" fill="none"/>
  </g>
  <!-- Mano sobre pecho (gesto angustia) -->
  <path d="M 76 142 Q 62 162 58 185 Q 68 188 74 167 Q 78 150 84 136 Z" fill="url(#skin3)"/>
  <ellipse cx="82" cy="150" rx="12" ry="9" fill="url(#skin3)" transform="rotate(-20, 82, 150)"/>
  <!-- Brazo derecho normal -->
  <path d="M 186 140 Q 200 158 204 178 Q 196 180 192 162 Q 184 147 178 134 Z" fill="url(#skin3)"/>
</svg>
